<svg width="317" height="280" viewBox="0 0 317 280" fill="none" xmlns="http://www.w3.org/2000/svg">
<path d="M103.231 17.3012C106.232 16.2685 109.305 15.4569 112.424 14.873L184.296 1.42152C212.7 -3.89469 238.614 18.7177 237.195 47.5804C236.186 68.0978 249.283 86.6644 268.95 92.5969L276.833 94.9752C314.661 106.386 328.638 152.656 303.455 183.102L266.378 227.926C259.55 236.18 250.788 242.62 240.871 246.67L171.132 275.155C157.135 280.872 141.583 281.531 127.153 277.019L46.0507 251.656C10.2607 240.463 -8.66078 201.391 4.75037 166.372L15.8095 137.495C19.2133 128.607 20.6237 119.08 19.9412 109.587L19.062 97.3578C16.9487 67.9627 34.8765 40.8242 62.7435 31.2343L103.231 17.3012Z" fill="#17291E"/>
</svg>
