<svg width="60" height="60" viewBox="0 0 60 60" fill="none" xmlns="http://www.w3.org/2000/svg">
<circle cx="30" cy="30" r="30" fill="#FFFEFE"/>
<circle cx="30" cy="30" r="26" fill="#2F2F2F"/>
<path d="M27.627 34.6523C27.6621 29.9414 29.1035 28.5 31.5293 27.0234C32.9707 26.1445 34.0957 24.7383 34.0957 22.7695C34.0957 20.3789 32.2324 18.8672 29.9121 18.8672C27.9082 18.8672 25.9043 20.0625 25.6934 22.9453H22.4941C22.6699 18.6914 25.9043 16.1953 29.9121 16.1953C34.3066 16.1953 37.1895 19.043 37.1895 22.9102C37.1895 25.6523 35.8887 27.5859 33.709 28.9219C31.5293 30.2578 30.7207 31.5938 30.6504 34.6523V34.8281H27.627V34.6523ZM29.2441 42.2109C28.0137 42.2109 26.959 41.1914 26.9941 39.9258C26.959 38.6953 28.0137 37.6758 29.2441 37.6758C30.4746 37.6758 31.4941 38.6953 31.4941 39.9258C31.4941 41.1914 30.4746 42.2109 29.2441 42.2109Z" fill="white"/>
</svg>
