<svg width="23" height="23" viewBox="0 0 23 23" fill="none" xmlns="http://www.w3.org/2000/svg">
<path d="M14.8835 18.1789C14.9503 18.2457 15.0033 18.325 15.0394 18.4122C15.0756 18.4995 15.0942 18.593 15.0942 18.6874C15.0942 18.7819 15.0756 18.8754 15.0394 18.9626C15.0033 19.0499 14.9503 19.1292 14.8835 19.1959C14.8168 19.2627 14.7375 19.3157 14.6502 19.3518C14.563 19.388 14.4695 19.4066 14.375 19.4066C14.2806 19.4066 14.1871 19.388 14.0998 19.3518C14.0126 19.3157 13.9333 19.2627 13.8665 19.1959L6.679 12.0084C6.61217 11.9417 6.55916 11.8624 6.52299 11.7752C6.48682 11.6879 6.4682 11.5944 6.4682 11.4999C6.4682 11.4055 6.48682 11.3119 6.52299 11.2247C6.55916 11.1374 6.61217 11.0581 6.679 10.9914L13.8665 3.8039C14.0014 3.66903 14.1843 3.59326 14.375 3.59326C14.5657 3.59326 14.7487 3.66903 14.8835 3.8039C15.0184 3.93876 15.0942 4.12168 15.0942 4.31241C15.0942 4.50314 15.0184 4.68606 14.8835 4.82093L8.20365 11.4999L14.8835 18.1789Z" fill="white"/>
</svg>
