<svg width="9" height="18" viewBox="0 0 9 18" fill="none" xmlns="http://www.w3.org/2000/svg">
<path d="M8.78006 9.53055L1.2809 17.0297C1.21122 17.0994 1.12851 17.1547 1.03747 17.1924C0.946439 17.2301 0.848868 17.2495 0.750333 17.2495C0.651798 17.2495 0.554227 17.2301 0.463193 17.1924C0.372158 17.1547 0.289442 17.0994 0.219767 17.0297C0.150092 16.96 0.0948231 16.8773 0.0571154 16.7863C0.0194076 16.6952 0 16.5977 0 16.4991C0 16.4006 0.0194076 16.303 0.0571154 16.212C0.0948231 16.121 0.150092 16.0383 0.219767 15.9686L7.1893 8.99998L0.219767 2.03139C0.0790523 1.89067 -1.48267e-09 1.69982 0 1.50082C1.48267e-09 1.30182 0.0790523 1.11097 0.219767 0.970256C0.360482 0.829541 0.551332 0.750488 0.750333 0.750488C0.949334 0.750488 1.14018 0.829541 1.2809 0.970256L8.78006 8.46942C8.84978 8.53906 8.9051 8.62177 8.94284 8.71281C8.98058 8.80385 9 8.90143 9 8.99998C9 9.09853 8.98058 9.19612 8.94284 9.28716C8.9051 9.37819 8.84978 9.4609 8.78006 9.53055Z" fill="white"/>
</svg>
