<svg width="46" height="46" viewBox="0 0 46 46" fill="none" xmlns="http://www.w3.org/2000/svg">
<path d="M30.8284 23.8284L16.4551 38.2018C16.3215 38.3354 16.163 38.4413 15.9885 38.5136C15.814 38.5859 15.627 38.6231 15.4381 38.6231C15.2493 38.6231 15.0623 38.5859 14.8878 38.5136C14.7133 38.4413 14.5548 38.3354 14.4212 38.2018C14.2877 38.0683 14.1817 37.9098 14.1095 37.7353C14.0372 37.5608 14 37.3738 14 37.1849C14 36.9961 14.0372 36.8091 14.1095 36.6346C14.1817 36.4601 14.2877 36.3015 14.4212 36.168L27.7795 22.8115L14.4212 9.45506C14.1515 9.18535 14 8.81956 14 8.43814C14 8.05672 14.1515 7.69092 14.4212 7.42122C14.6909 7.15152 15.0567 7 15.4381 7C15.8196 7 16.1854 7.15152 16.4551 7.42122L30.8284 21.7946C30.9621 21.9281 31.0681 22.0866 31.1404 22.2611C31.2128 22.4356 31.25 22.6226 31.25 22.8115C31.25 23.0004 31.2128 23.1875 31.1404 23.3619C31.0681 23.5364 30.9621 23.695 30.8284 23.8284Z" fill="white"/>
</svg>
