<svg width="21" height="21" viewBox="0 0 21 21" fill="none" xmlns="http://www.w3.org/2000/svg">
<path d="M17.0625 6.5625H14.4375V4.59375C14.4375 3.54946 14.0227 2.54794 13.2842 1.80952C12.5458 1.07109 11.5443 0.65625 10.5 0.65625C9.45571 0.65625 8.45419 1.07109 7.71577 1.80952C6.97734 2.54794 6.5625 3.54946 6.5625 4.59375V6.5625H3.9375C3.5894 6.5625 3.25556 6.70078 3.00942 6.94692C2.76328 7.19306 2.625 7.5269 2.625 7.875V17.0625C2.625 17.4106 2.76328 17.7444 3.00942 17.9906C3.25556 18.2367 3.5894 18.375 3.9375 18.375H17.0625C17.4106 18.375 17.7444 18.2367 17.9906 17.9906C18.2367 17.7444 18.375 17.4106 18.375 17.0625V7.875C18.375 7.5269 18.2367 7.19306 17.9906 6.94692C17.7444 6.70078 17.4106 6.5625 17.0625 6.5625ZM7.875 4.59375C7.875 3.89756 8.15156 3.22988 8.64384 2.73759C9.13613 2.24531 9.80381 1.96875 10.5 1.96875C11.1962 1.96875 11.8639 2.24531 12.3562 2.73759C12.8484 3.22988 13.125 3.89756 13.125 4.59375V6.5625H7.875V4.59375ZM17.0625 17.0625H3.9375V7.875H17.0625V17.0625Z" fill="white"/>
</svg>
