<svg width="23" height="23" viewBox="0 0 23 23" fill="none" xmlns="http://www.w3.org/2000/svg">
<path d="M19.0469 7.1875C18.5493 7.1875 18.063 7.33504 17.6493 7.61146C17.2356 7.88788 16.9131 8.28077 16.7227 8.74044C16.5323 9.20011 16.4825 9.70592 16.5796 10.1939C16.6767 10.6819 16.9162 11.1301 17.2681 11.4819C17.6199 11.8338 18.0681 12.0733 18.5561 12.1704C19.0441 12.2675 19.5499 12.2177 20.0096 12.0273C20.4692 11.8369 20.8621 11.5144 21.1385 11.1007C21.415 10.687 21.5625 10.2007 21.5625 9.70313C21.5625 9.03594 21.2975 8.39608 20.8257 7.92431C20.3539 7.45254 19.7141 7.1875 19.0469 7.1875ZM19.0469 10.7813C18.8336 10.7813 18.6252 10.718 18.4479 10.5996C18.2706 10.4811 18.1324 10.3127 18.0508 10.1157C17.9692 9.91871 17.9479 9.70193 17.9895 9.49279C18.0311 9.28366 18.1337 9.09156 18.2845 8.94078C18.4353 8.79 18.6274 8.68732 18.8365 8.64572C19.0457 8.60412 19.2625 8.62547 19.4595 8.70707C19.6565 8.78867 19.8248 8.92686 19.9433 9.10415C20.0618 9.28145 20.125 9.48989 20.125 9.70313C20.125 9.98906 20.0114 10.2633 19.8092 10.4655C19.607 10.6677 19.3328 10.7813 19.0469 10.7813ZM6.46875 9.70313C6.46875 9.20558 6.32121 8.71921 6.04479 8.30552C5.76837 7.89183 5.37548 7.56939 4.91581 7.37899C4.45614 7.18859 3.95034 7.13877 3.46235 7.23584C2.97437 7.3329 2.52613 7.57249 2.17431 7.92431C1.82249 8.27613 1.5829 8.72437 1.48584 9.21235C1.38877 9.70034 1.43859 10.2061 1.62899 10.6658C1.81939 11.1255 2.14183 11.5184 2.55552 11.7948C2.96921 12.0712 3.45558 12.2188 3.95313 12.2188C4.62031 12.2188 5.26017 11.9537 5.73194 11.4819C6.20371 11.0102 6.46875 10.3703 6.46875 9.70313ZM3.95313 10.7813C3.73989 10.7813 3.53145 10.718 3.35415 10.5996C3.17686 10.4811 3.03867 10.3127 2.95707 10.1157C2.87547 9.91871 2.85412 9.70193 2.89572 9.49279C2.93732 9.28366 3.04 9.09156 3.19078 8.94078C3.34155 8.79 3.53366 8.68732 3.74279 8.64572C3.95193 8.60412 4.1687 8.62547 4.36571 8.70707C4.56271 8.78867 4.73109 8.92686 4.84955 9.10415C4.96802 9.28145 5.03125 9.48989 5.03125 9.70313C5.03125 9.98906 4.91766 10.2633 4.71548 10.4655C4.51329 10.6677 4.23906 10.7813 3.95313 10.7813ZM8.26563 7.90625C8.76317 7.90625 9.24954 7.75871 9.66323 7.48229C10.0769 7.20587 10.3994 6.81298 10.5898 6.35331C10.7802 5.89364 10.83 5.38784 10.7329 4.89985C10.6358 4.41187 10.3963 3.96363 10.0444 3.61181C9.69263 3.25999 9.24438 3.0204 8.7564 2.92334C8.26842 2.82627 7.76261 2.87609 7.30294 3.06649C6.84327 3.25689 6.45038 3.57933 6.17396 3.99302C5.89754 4.40671 5.75 4.89308 5.75 5.39063C5.75 6.05781 6.01504 6.69767 6.48681 7.16944C6.95858 7.64121 7.59844 7.90625 8.26563 7.90625ZM8.26563 4.3125C8.47886 4.3125 8.6873 4.37573 8.8646 4.4942C9.0419 4.61266 9.18008 4.78104 9.26168 4.97805C9.34328 5.17505 9.36464 5.39182 9.32304 5.60096C9.28144 5.81009 9.17875 6.0022 9.02798 6.15298C8.8772 6.30375 8.68509 6.40644 8.47596 6.44804C8.26682 6.48964 8.05005 6.46828 7.85305 6.38668C7.65604 6.30508 7.48766 6.1669 7.3692 5.9896C7.25073 5.8123 7.1875 5.60386 7.1875 5.39063C7.1875 5.10469 7.30109 4.83046 7.50328 4.62828C7.70546 4.42609 7.97969 4.3125 8.26563 4.3125ZM14.7344 7.90625C15.2319 7.90625 15.7183 7.75871 16.132 7.48229C16.5457 7.20587 16.8681 6.81298 17.0585 6.35331C17.2489 5.89364 17.2987 5.38784 17.2017 4.89985C17.1046 4.41187 16.865 3.96363 16.5132 3.61181C16.1614 3.25999 15.7131 3.0204 15.2252 2.92334C14.7372 2.82627 14.2314 2.87609 13.7717 3.06649C13.312 3.25689 12.9191 3.57933 12.6427 3.99302C12.3663 4.40671 12.2188 4.89308 12.2188 5.39063C12.2188 6.05781 12.4838 6.69767 12.9556 7.16944C13.4273 7.64121 14.0672 7.90625 14.7344 7.90625ZM14.7344 4.3125C14.9476 4.3125 15.1561 4.37573 15.3334 4.4942C15.5106 4.61266 15.6488 4.78104 15.7304 4.97805C15.812 5.17505 15.8334 5.39182 15.7918 5.60096C15.7502 5.81009 15.6475 6.0022 15.4967 6.15298C15.3459 6.30375 15.1538 6.40644 14.9447 6.44804C14.7356 6.48964 14.5188 6.46828 14.3218 6.38668C14.1248 6.30508 13.9564 6.1669 13.8379 5.9896C13.7195 5.8123 13.6563 5.60386 13.6563 5.39063C13.6563 5.10469 13.7698 4.83046 13.972 4.62828C14.1742 4.42609 14.4484 4.3125 14.7344 4.3125ZM16.8116 13.3741C16.4465 13.1727 16.1247 12.9013 15.8646 12.5754C15.6045 12.2495 15.4113 11.8755 15.2959 11.4748C15.0569 10.653 14.5577 9.93091 13.8732 9.4171C13.1887 8.90329 12.3559 8.62551 11.5 8.62551C10.6441 8.62551 9.81134 8.90329 9.12684 9.4171C8.44234 9.93091 7.94308 10.653 7.7041 11.4748C7.47325 12.2811 6.93205 12.9628 6.19922 13.3705C5.49621 13.7509 4.94008 14.3549 4.6188 15.0868C4.29752 15.8187 4.22942 16.6368 4.42528 17.4118C4.62113 18.1868 5.06976 18.8743 5.7002 19.3657C6.33065 19.8571 7.10692 20.1243 7.90625 20.125C8.38526 20.1264 8.85959 20.0307 9.30063 19.8438C10.7067 19.2639 12.2852 19.2639 13.6913 19.8438C14.543 20.2142 15.505 20.2405 16.3756 19.9172C17.2463 19.5939 17.958 18.9461 18.3615 18.1096C18.7649 17.2731 18.8289 16.3128 18.54 15.4302C18.2511 14.5475 17.6316 13.811 16.8116 13.375V13.3741ZM15.0938 18.6875C14.8019 18.6878 14.5131 18.6288 14.2447 18.5141C12.4843 17.787 10.5076 17.787 8.74719 18.5141C8.23562 18.7344 7.65866 18.7481 7.13716 18.5525C6.61567 18.3569 6.19009 17.9671 5.94959 17.4647C5.70909 16.9623 5.67231 16.3864 5.84696 15.8575C6.02161 15.3286 6.39415 14.8878 6.88652 14.6275C7.41592 14.3351 7.8825 13.9412 8.25957 13.4684C8.63665 12.9956 8.91683 12.4531 9.0841 11.872C9.23599 11.3487 9.55366 10.8889 9.98934 10.5617C10.425 10.2345 10.9551 10.0576 11.5 10.0576C12.0449 10.0576 12.575 10.2345 13.0107 10.5617C13.4463 10.8889 13.764 11.3487 13.9159 11.872C14.0837 12.4542 14.3648 12.9976 14.7429 13.4711C15.1211 13.9445 15.589 14.3387 16.1198 14.6311C16.5437 14.8584 16.8794 15.221 17.0735 15.6611C17.2676 16.1013 17.309 16.5937 17.1911 17.06C17.0731 17.5264 16.8026 17.9399 16.4226 18.2348C16.0425 18.5297 15.5748 18.689 15.0938 18.6875Z" fill="white"/>
</svg>
